HIERARCHY
ROOT Hips
{
	OFFSET 0.000000 0.000000 0.000000
	CHANNELS 6 Xposition Yposition Zposition Zrotation Yrotation Xrotation 
	JOINT LeftUpLeg_virtual
	{
		OFFSET 0.000000 0.000000 0.000000
		CHANNELS 3 Zrotation Yrotation Xrotation
		JOINT LeftUpLeg
		{
			OFFSET 8.479694 -4.795517 -0.379053
			CHANNELS 3 Zrotation Yrotation Xrotation
			JOINT LeftLeg
			{
				OFFSET 0.485052 -32.551468 0.112863
				CHANNELS 3 Zrotation Yrotation Xrotation
				JOINT LeftFoot
				{
					OFFSET 0.438033 -32.635670 -3.012641
					CHANNELS 3 Zrotation Yrotation Xrotation
					JOINT LeftToeBase
					{
						OFFSET 0.970169 -13.225353 11.864223
						CHANNELS 3 Zrotation Yrotation Xrotation
						End Site
						{
							OFFSET 0.000000 0.000000 0.000000
						}
					}
				}
			}
		}
	}
	JOINT RightUpLeg_virtual
	{
		OFFSET 0.000000 0.000000 0.000000
		CHANNELS 3 Zrotation Yrotation Xrotation
		JOINT RightUpLeg
		{
			OFFSET -8.479694 -4.795517 -0.379053
			CHANNELS 3 Zrotation Yrotation Xrotation
			JOINT RightLeg
			{
				OFFSET -0.484100 -32.551483 0.112903
				CHANNELS 3 Zrotation Yrotation Xrotation
				JOINT RightFoot
				{
					OFFSET -0.438985 -32.635651 -3.012681
					CHANNELS 3 Zrotation Yrotation Xrotation
					JOINT RightToeBase
					{
						OFFSET -0.970169 -13.225354 11.864223
						CHANNELS 3 Zrotation Yrotation Xrotation
						End Site
						{
							OFFSET 0.000000 0.000000 0.000000
						}
					}
				}
			}
		}
	}
	JOINT Spine_virtual
	{
		OFFSET 0.000000 0.000000 0.000000
		CHANNELS 3 Zrotation Yrotation Xrotation
		JOINT Spine
		{
			OFFSET 0.000000 7.722015 1.166203
			CHANNELS 3 Zrotation Yrotation Xrotation
			JOINT Spine1
			{
				OFFSET 0.000000 12.024086 0.248766
				CHANNELS 3 Zrotation Yrotation Xrotation
				JOINT Spine2
				{
					OFFSET -0.000000 11.503036 -0.491240
					CHANNELS 3 Zrotation Yrotation Xrotation
					JOINT Neck_virtual
					{
						OFFSET 0.000000 0.000000 0.000000
						CHANNELS 3 Zrotation Yrotation Xrotation
						JOINT Neck
						{
							OFFSET 0.000000 18.430687 -3.123054
							CHANNELS 3 Zrotation Yrotation Xrotation
							JOINT Head
							{
								OFFSET -0.000000 9.051071 1.034021
								CHANNELS 3 Zrotation Yrotation Xrotation
								End Site
								{
									OFFSET 0.000000 0.000000 0.000000
								}
							}
						}
					}
					JOINT LeftShoulder_virtual
					{
						OFFSET 0.000000 0.000000 0.000000
						CHANNELS 3 Zrotation Yrotation Xrotation
						JOINT LeftShoulder
						{
							OFFSET 6.197824 13.665230 -4.064723
							CHANNELS 3 Zrotation Yrotation Xrotation
							JOINT LeftArm
							{
								OFFSET 7.778132 -0.187073 -1.709282
								CHANNELS 3 Zrotation Yrotation Xrotation
								JOINT LeftForeArm
								{
									OFFSET 21.954697 0.000000 -2.041093
									CHANNELS 3 Zrotation Yrotation Xrotation
									JOINT LeftHand
									{
										OFFSET 22.992908 0.000000 -0.870901
										CHANNELS 3 Zrotation Yrotation Xrotation
										End Site
										{
											OFFSET 0.000000 0.000000 0.000000
										}
									}
								}
							}
						}
					}
					JOINT RightShoulder_virtual
					{
						OFFSET 0.000000 0.000000 0.000000
						CHANNELS 3 Zrotation Yrotation Xrotation
						JOINT RightShoulder
						{
							OFFSET -6.197824 13.665230 -4.064723
							CHANNELS 3 Zrotation Yrotation Xrotation
							JOINT RightArm
							{
								OFFSET -7.778132 -0.187073 -1.709282
								CHANNELS 3 Zrotation Yrotation Xrotation
								JOINT RightForeArm
								{
									OFFSET -21.954697 0.000000 -2.041093
									CHANNELS 3 Zrotation Yrotation Xrotation
									JOINT RightHand
									{
										OFFSET -22.992908 0.000000 -0.870901
										CHANNELS 3 Zrotation Yrotation Xrotation
										End Site
										{
											OFFSET 0.000000 0.000000 0.000000
										}
									}
								}
							}
						}
					}
				}
			}
		}
	}
}
MOTION
Frames: 14
Frame Time: 0.033333
-9.744931 77.510544 42.009628 -179.712167 -73.390164 179.739529 -1.589754 4.751284 17.830677 15.014779 4.001904 -37.780993 1.982062 -0.537654 47.297813 -2.499036 -10.519437 -13.529961 0.000000 0.000000 0.000000 2.919418 3.971801 18.679391 -23.491599 -3.282225 -33.604384 2.684299 4.628990 35.234012 12.057281 5.177995 -6.153880 0.000000 0.000000 0.000000 5.459469 5.693340 14.467753 11.060241 -1.309241 3.694216 0.086345 -4.965475 9.830932 -0.029387 -0.017404 0.017873 0.468672 -4.351277 10.266667 2.514264 -3.960270 -25.746297 0.000000 0.000000 0.000000 2.044986 -3.567273 7.130496 -6.836081 -6.170746 5.469756 -54.795408 -48.629362 47.725585 -33.942195 -72.706360 41.086043 0.000000 0.000000 0.000000 -2.240933 -1.965568 6.789871 34.863355 9.736582 2.221977 43.955385 20.758077 -12.683142 -2.465841 40.090762 -6.533736 0.000000 0.000000 0.000000 
-9.847707 76.797829 44.704418 -179.414330 -74.492741 179.549800 -1.490308 4.088368 17.392872 13.333845 3.910777 -39.543121 1.923114 0.046430 49.431315 -2.261819 -11.814718 -15.156635 0.000000 0.000000 0.000000 2.305807 3.551231 18.346609 -25.056383 -3.367929 -32.121645 2.951733 5.905213 33.006537 13.268722 5.700766 -5.553138 0.000000 0.000000 0.000000 4.708441 5.422928 14.012270 10.059843 -1.141159 4.050911 0.050066 -4.616947 9.931354 -0.047426 0.053571 0.013918 0.415163 -4.136347 10.322995 2.339173 -3.936422 -25.647080 0.000000 0.000000 0.000000 1.992754 -3.377260 7.224800 -6.569395 -6.348965 5.111791 -54.774019 -49.371490 46.800702 -34.057915 -72.889484 41.187079 0.000000 0.000000 0.000000 -2.315287 -1.690132 6.815666 34.894494 9.448980 2.169930 45.193282 20.115915 -11.692665 -2.911951 41.390649 -6.515231 0.000000 0.000000 0.000000 
-9.993017 76.299736 47.257725 -179.874958 -76.123189 -179.972384 -1.908674 3.075985 16.917690 11.619454 3.972107 -41.205596 2.270855 0.692829 52.415193 -1.381282 -11.797653 -16.517878 0.000000 0.000000 0.000000 1.641439 3.009352 17.930623 -26.114094 -4.098836 -30.051699 2.593752 6.433752 31.062355 13.551259 5.508935 -5.763858 0.000000 0.000000 0.000000 3.832756 5.064301 13.591854 8.973517 -0.968141 4.376982 -0.031647 -4.397489 10.142907 0.008045 0.004038 -0.032012 0.372234 -3.779494 10.418251 2.255518 -3.839313 -25.595692 0.000000 0.000000 0.000000 1.974481 -3.086220 7.272315 -6.143606 -6.435325 4.813897 -54.602885 -49.830034 45.862446 -33.888267 -73.086166 40.837086 0.000000 0.000000 0.000000 -2.351256 -1.361455 6.868290 34.902403 9.217555 2.130389 46.214146 19.814655 -10.242441 -3.457673 42.551150 -6.575995 0.000000 0.000000 0.000000 
-10.133908 76.092888 49.501499 -179.900899 -77.726597 179.948341 -2.416155 2.771763 16.799965 10.494776 3.356040 -42.680288 2.737546 1.442602 54.534993 -0.596828 -11.586611 -17.400435 0.000000 0.000000 0.000000 1.358278 1.968124 17.295309 -26.327794 -5.581678 -28.261120 1.514853 5.771471 30.706058 12.229764 3.820795 -6.080278 0.000000 0.000000 0.000000 3.062016 4.673567 13.243870 7.867557 -0.483910 4.696366 -0.167028 -4.219860 10.252482 0.018380 -0.146561 -0.009542 0.318216 -3.407055 10.557250 2.233486 -3.800219 -25.491367 0.000000 0.000000 0.000000 1.953610 -2.752900 7.352253 -5.329538 -6.609651 4.584692 -54.245724 -49.719358 44.919596 -32.546538 -73.338562 39.323732 0.000000 0.000000 0.000000 -2.396710 -0.977385 6.950833 34.861180 9.024809 2.085961 47.286001 19.686987 -8.332670 -3.944271 43.635244 -6.481580 0.000000 0.000000 0.000000 
-10.153566 76.238037 51.347900 179.423237 -79.446336 -179.331589 -2.885376 2.033155 16.660966 9.290241 2.808787 -43.460606 3.285095 1.877223 55.134154 -0.342073 -11.288336 -17.363927 0.000000 0.000000 0.000000 0.635465 1.068235 16.731358 -25.682001 -6.667246 -27.028781 0.795948 4.427241 31.727615 10.697876 2.161294 -6.626117 0.000000 0.000000 0.000000 2.079578 4.032204 12.816709 6.719736 -0.306340 4.753440 -0.223700 -3.708568 10.399406 0.029481 0.036500 -0.001247 0.139414 -3.091543 10.726469 2.199799 -3.867855 -25.343384 0.000000 0.000000 0.000000 1.799356 -2.404451 7.441579 -4.381630 -6.841067 4.352194 -53.790031 -49.059514 43.851064 -31.339807 -73.408196 38.212429 0.000000 0.000000 0.000000 -2.556859 -0.584447 6.979989 34.800026 8.851078 2.052654 48.440234 19.461142 -5.967496 -4.419846 44.875238 -6.448912 0.000000 0.000000 0.000000 
-10.094932 76.719109 52.798717 178.969685 -81.361070 -178.911314 -3.487872 1.450827 16.680119 8.671799 1.822289 -43.574462 3.779711 2.147232 54.213237 -0.383252 -10.881546 -16.647278 0.000000 0.000000 0.000000 0.078619 0.332251 16.437400 -24.322280 -7.607924 -26.306836 0.501117 3.462430 33.847802 9.065051 1.046706 -6.583240 0.000000 0.000000 0.000000 1.201016 3.496112 12.564795 5.656700 0.004726 4.626073 -0.258133 -3.393657 10.541131 0.086642 0.025419 -0.006932 0.056505 -2.727457 10.878490 2.263671 -3.907506 -25.194666 0.000000 0.000000 0.000000 1.700054 -2.078032 7.541620 -3.338241 -7.175603 4.032429 -53.432724 -48.060063 42.919454 -29.949936 -73.324758 36.874552 0.000000 0.000000 0.000000 -2.614769 -0.280180 6.997177 34.773641 8.658986 1.932053 49.713624 19.142035 -3.051917 -5.086792 46.426377 -6.609940 0.000000 0.000000 0.000000 
-10.036502 77.412674 54.034439 178.749507 -83.177893 -178.716339 -4.089140 1.085410 16.816462 8.435415 0.603263 -43.153863 4.195481 2.567090 52.193000 -0.526302 -10.368697 -15.614717 0.000000 0.000000 0.000000 -0.650166 -0.102547 16.350107 -21.985494 -8.085827 -26.305053 0.758653 3.395873 36.333977 8.356278 1.232344 -6.334122 0.000000 0.000000 0.000000 0.416305 3.058669 12.495118 4.678335 0.177401 4.309574 -0.176135 -3.142907 10.641342 0.102855 0.015326 -0.005580 -0.002698 -2.500202 10.915246 2.399631 -4.082712 -25.005819 0.000000 0.000000 0.000000 1.680417 -1.792323 7.602961 -2.372627 -7.624809 3.761793 -53.390219 -46.934092 42.303357 -27.983075 -73.294979 34.989932 0.000000 0.000000 0.000000 -2.583360 -0.061342 6.999849 34.739998 8.396551 1.770687 51.114137 18.563465 -0.029454 -5.818188 48.337211 -6.911126 0.000000 0.000000 0.000000 
-10.031756 78.187149 55.127563 178.222038 -84.598040 -178.193092 -4.639418 1.120543 16.951956 8.373819 -0.527789 -42.326249 4.457755 3.058366 49.645472 -0.776182 -9.960477 -14.380849 0.000000 0.000000 0.000000 -1.148211 -0.204472 16.412799 -19.328083 -8.406498 -26.657858 1.256581 3.768352 38.109877 7.977634 1.969744 -6.625239 0.000000 0.000000 0.000000 -0.256119 2.934905 12.607300 3.805812 0.207176 3.820411 -0.046072 -2.949824 10.669344 -0.006445 0.007451 -0.020649 0.187752 -2.242870 10.854075 2.662704 -4.294434 -24.781166 0.000000 0.000000 0.000000 1.894705 -1.609411 7.628624 -1.725474 -8.180607 3.468099 -53.893256 -45.720016 42.095726 -25.766593 -73.341137 32.825906 0.000000 0.000000 0.000000 -2.316305 0.100590 6.966523 34.630213 8.069861 1.588608 52.377972 18.020093 2.380262 -6.517490 50.383153 -7.296344 0.000000 0.000000 0.000000 
-10.160688 78.946312 56.092262 178.078782 -85.482604 -178.152562 -5.189027 1.555728 17.112597 8.380416 -1.489974 -41.282135 4.561425 3.579172 47.006226 -1.035246 -9.687397 -13.105639 0.000000 0.000000 0.000000 -1.433674 -0.007987 16.542524 -16.635257 -8.508255 -26.991828 1.475735 3.892068 38.834806 7.104754 2.189676 -7.224115 0.000000 0.000000 0.000000 -0.785087 3.055412 12.792685 3.094410 0.091111 3.291971 0.177847 -2.845128 10.700935 0.000018 -0.007278 -0.010862 0.358578 -2.126562 10.680270 3.169813 -4.547352 -24.513843 0.000000 0.000000 0.000000 2.122744 -1.478039 7.560542 -1.308465 -8.807985 3.179506 -54.749956 -44.416133 42.150566 -23.947859 -73.406037 31.039443 0.000000 0.000000 0.000000 -2.104917 0.161366 6.857176 34.300233 7.729670 1.279850 53.520147 17.534134 4.212656 -7.280863 52.204393 -7.940770 0.000000 0.000000 0.000000 
-10.419259 79.642952 56.946518 178.770994 -85.795085 -178.751364 -5.614867 1.937318 17.064565 8.313023 -1.987914 -40.195670 4.582271 4.142969 44.657027 -1.176643 -9.446182 -11.901465 0.000000 0.000000 0.000000 -1.600728 0.361817 16.546186 -14.050065 -8.335652 -27.338471 1.623380 3.959911 39.061326 6.299926 2.292864 -7.730395 0.000000 0.000000 0.000000 -1.064758 3.271039 12.764565 2.642704 -0.100736 2.709577 0.434957 -2.779968 10.694827 -0.054835 -0.004489 -0.018755 0.636921 -2.113491 10.570332 3.972660 -4.847315 -24.294080 0.000000 0.000000 0.000000 2.386482 -1.434132 7.587081 -1.148674 -9.488274 2.814978 -55.796351 -43.188966 42.157458 -22.464547 -73.462059 29.592003 0.000000 0.000000 0.000000 -1.795753 0.121005 6.895205 33.749590 7.440423 0.949336 54.256738 17.289505 5.510259 -8.043061 53.499373 -8.428693 0.000000 0.000000 0.000000 
-10.775614 80.230385 57.639637 178.917707 -85.452264 -178.887968 -5.996583 2.443319 16.989454 8.231483 -2.239575 -38.974251 4.546660 4.747834 42.698723 -1.221253 -9.225537 -10.840082 0.000000 0.000000 0.000000 -1.797309 0.706663 16.502220 -11.780121 -7.695519 -27.642522 1.631882 3.964521 38.986761 5.714841 2.359574 -8.218655 0.000000 0.000000 0.000000 -1.206922 3.582381 12.650341 2.378752 -0.197113 2.273962 0.672598 -2.818571 10.788356 0.014973 -0.050939 -0.008584 0.818789 -2.136092 10.476593 5.017343 -5.177862 -24.018456 0.000000 0.000000 0.000000 2.483978 -1.447286 7.655316 -1.282673 -10.114618 2.569552 -56.642308 -42.259074 42.146099 -21.549482 -73.583745 28.791839 0.000000 0.000000 0.000000 -1.644587 0.074937 6.860189 32.982038 7.199044 0.698797 54.759297 17.417464 6.398563 -8.647913 54.261144 -8.912010 0.000000 0.000000 0.000000 
-11.154654 80.696671 58.219936 179.104554 -84.137091 -179.025460 -6.235194 2.979802 17.005050 7.883648 -1.694074 -37.888733 4.516049 5.459107 41.073554 -1.144523 -8.888864 -10.201156 0.000000 0.000000 0.000000 -1.918265 1.392872 16.313053 -9.625191 -6.914941 -28.007459 1.631534 4.207599 38.795304 5.285996 2.300165 -8.646684 0.000000 0.000000 0.000000 -1.317680 3.886485 12.375211 2.299720 -0.373929 1.906882 0.821513 -2.721934 10.945053 0.028986 0.015527 -0.011994 1.034384 -2.140329 10.486279 6.329760 -5.561607 -23.781441 0.000000 0.000000 0.000000 2.633693 -1.416123 7.659768 -1.533162 -10.481639 2.419237 -57.123239 -41.539588 42.101610 -20.383562 -73.831640 27.716611 0.000000 0.000000 0.000000 -1.496371 0.203157 6.914028 32.021119 7.061786 0.520646 55.052407 17.845418 7.306241 -9.231295 54.578402 -9.438728 0.000000 0.000000 0.000000 
-11.545370 81.026855 58.653358 -179.753107 -83.018347 179.761304 -6.271639 3.264772 16.925069 7.425446 -0.962901 -36.665787 4.396806 5.878644 39.795913 -1.133974 -8.618191 -9.828471 0.000000 0.000000 0.000000 -1.848746 1.807819 16.328867 -7.574643 -5.819944 -28.420904 2.235176 4.736153 38.331517 6.347535 3.783225 -10.197001 0.000000 0.000000 0.000000 -1.086588 4.184851 12.177543 2.613673 -0.457997 1.625882 0.977394 -2.743779 11.178831 0.016149 -0.109313 0.018088 1.175628 -2.255156 10.514911 7.831474 -6.032130 -23.526392 0.000000 0.000000 0.000000 2.660842 -1.529619 7.730752 -1.827465 -10.814115 2.249522 -57.294277 -40.867580 41.775011 -20.505840 -74.020782 27.989618 0.000000 0.000000 0.000000 -1.452666 0.036766 7.015000 30.996901 6.952812 0.384057 55.182686 18.440905 8.196693 -9.563125 54.719562 -9.619336 0.000000 0.000000 0.000000 
-11.908420 81.221275 58.989788 -179.425709 -81.178772 179.439356 -6.113617 3.988506 16.798360 6.778569 0.061017 -35.623763 4.355817 6.542669 38.743773 -1.346698 -8.395533 -9.725061 0.000000 0.000000 0.000000 -1.825763 2.539224 16.341417 -5.757152 -4.194223 -29.131320 3.381758 5.670435 37.632054 7.994694 5.962172 -12.625119 0.000000 0.000000 0.000000 -0.819471 4.702645 11.950288 3.079809 -0.453689 1.303633 1.021401 -2.872772 11.425610 -0.015724 -0.016251 0.003393 1.295257 -2.269998 10.720073 9.404082 -6.503770 -23.285802 0.000000 0.000000 0.000000 2.666343 -1.565490 7.847811 -2.366871 -10.760139 2.288261 -57.087810 -40.072307 41.377125 -20.842216 -74.225346 28.495034 0.000000 0.000000 0.000000 -1.432063 0.037261 7.254814 29.973189 6.904235 0.378753 54.980929 19.102588 8.882833 -10.089238 54.851699 -10.054336 0.000000 0.000000 0.000000 
